<svg height="428pt" viewBox="0 -19 428.007 428" width="428pt" xmlns="http://www.w3.org/2000/svg" xmlns:xlink="http://www.w3.org/1999/xlink"><linearGradient id="a"><stop offset="0" stop-color="#00efd1"/><stop offset="1" stop-color="#00acea"/></linearGradient><linearGradient id="b" gradientUnits="userSpaceOnUse" x1="214.0035" x2="214.0035" xlink:href="#a" y1="-53.3965" y2="423.6775"/><linearGradient id="c" gradientUnits="userSpaceOnUse" x1="141.3945" x2="141.3945" xlink:href="#a" y1="-53.3965" y2="423.6775"/><linearGradient id="d" gradientUnits="userSpaceOnUse" x1="68.7865" x2="68.7865" xlink:href="#a" y1="-53.3965" y2="423.6775"/><linearGradient id="e" gradientUnits="userSpaceOnUse" x1="359.2205" x2="359.2205" xlink:href="#a" y1="-53.3965" y2="423.6775"/><linearGradient id="f" gradientUnits="userSpaceOnUse" x1="286.6125" x2="286.6125" xlink:href="#a" y1="-53.3965" y2="423.6775"/><path d="m421.304688 263.601562h-74.300782v-112.257812c.046875-21.3125-17.167968-38.644531-38.480468-38.742188h-12.519532v-29.46875c0-45.835937-36.625-83.12890575-82-83.12890575s-82 37.28906275-82 83.12890575v29.46875h-12.519531c-21.3125.097657-38.527344 17.429688-38.480469 38.742188v112.257812h-74.300781c-1.800781-.035156-3.539063.671876-4.808594 1.953126-1.265625 1.28125-1.9492185 3.027343-1.89062475 4.828124v111.820313c0 3.867187 2.83593775 7.398437 6.69921875 7.398437h414.601563c3.863281 0 6.699218-3.535156 6.699218-7.398437v-111.820313c.058594-1.800781-.625-3.546874-1.894531-4.828124-1.265625-1.28125-3.003906-1.988282-4.804687-1.953126zm-275.300782-180.46875c0-38.117187 30.34375-69.128906 68-69.128906s68 31.011719 68 69.128906v29.46875h-136zm-51 68.210938c-.058594-13.585938 10.894532-24.652344 24.480469-24.742188h189.039063c13.585937.089844 24.539062 11.15625 24.480468 24.742188v112.257812h-238zm319 224.257812h-400v-98h400zm0 0" fill="url(#b)"/><path d="m214.003906 351.847656c14.113282 0 25.554688-11.441406 25.554688-25.554687.003906-14.113281-11.4375-25.554688-25.554688-25.554688-14.113281-.003906-25.554687 11.441407-25.554687 25.554688.015625 14.105469 11.445312 25.539062 25.554687 25.554687zm0-37.109375c6.382813 0 11.554688 5.171875 11.554688 11.554688.003906 6.382812-5.171875 11.558593-11.554688 11.554687-6.382812 0-11.554687-5.171875-11.554687-11.554687.007812-6.378907 5.175781-11.546875 11.554687-11.554688zm0 0" fill="url(#b)"/><path d="m141.394531 351.847656c14.113281 0 25.558594-11.441406 25.558594-25.554687s-11.445313-25.554688-25.558594-25.554688-25.554687 11.441407-25.554687 25.554688c.015625 14.105469 11.449218 25.539062 25.554687 25.554687zm0-37.109375c6.382813 0 11.558594 5.171875 11.558594 11.554688 0 6.382812-5.175781 11.558593-11.558594 11.554687-6.382812 0-11.554687-5.171875-11.554687-11.554687.007812-6.378907 5.175781-11.546875 11.554687-11.554688zm0 0" fill="url(#c)"/><path d="m68.785156 351.847656c14.117188 0 25.558594-11.441406 25.558594-25.554687s-11.441406-25.554688-25.554688-25.554688c-14.117187-.003906-25.558593 11.441407-25.558593 25.554688.015625 14.105469 11.449219 25.539062 25.554687 25.554687zm0-37.109375c6.382813 0 11.558594 5.171875 11.558594 11.554688 0 6.382812-5.175781 11.558593-11.554688 11.554687-6.382812 0-11.558593-5.171875-11.558593-11.554687.007812-6.378907 5.175781-11.546875 11.554687-11.554688zm0 0" fill="url(#d)"/><path d="m359.21875 351.847656c14.117188 0 25.558594-11.441406 25.558594-25.554687s-11.441406-25.554688-25.554688-25.554688c-14.113281-.003906-25.558594 11.441407-25.558594 25.554688.015626 14.105469 11.449219 25.539062 25.554688 25.554687zm0-37.109375c6.382812 0 11.558594 5.171875 11.558594 11.554688 0 6.382812-5.171875 11.558593-11.554688 11.554687-6.382812 0-11.558594-5.171875-11.558594-11.554687.007813-6.378907 5.179688-11.546875 11.554688-11.554688zm0 0" fill="url(#e)"/><path d="m286.613281 351.847656c14.113281 0 25.554688-11.441406 25.554688-25.554687s-11.441407-25.554688-25.554688-25.554688c-14.113281-.003906-25.558593 11.441407-25.558593 25.554688.015624 14.105469 11.449218 25.539062 25.558593 25.554687zm0-37.109375c6.378907 0 11.554688 5.171875 11.554688 11.554688 0 6.382812-5.171875 11.558593-11.554688 11.554687-6.382812 0-11.558593-5.171875-11.558593-11.554687.007812-6.378907 5.179687-11.546875 11.558593-11.554688zm0 0" fill="url(#f)"/></svg>